<svg width="1512" height="1588" viewBox="0 0 1512 1588" fill="none"
    xmlns="http://www.w3.org/2000/svg">
    <path d="M1497 794.5C1497 1225.72 1164.55 1574 756 1574C347.45 1574 15 1225.72 15 794.5C15 363.283 347.45 15 756 15C1164.55 15 1497 363.283 1497 794.5Z" fill="url(#paint0_radial_26_34)" stroke="white" stroke-width="30"/>
    <path d="M535.727 583.811C500.374 550.645 455.73 531.029 437.827 525.365C419.924 544.168 382.079 596.589 373.921 655.853C359.644 701.389 535.727 600.123 369.162 1113.25L535.727 1118.69L631.586 724.497C672.378 683.945 768.237 692.554 768.237 765.955L682.576 1118.69H857.299L943.64 733.332C965.396 683.039 1099.33 676.922 1083.01 771.392C1061.41 896.446 1015.03 967.808 1042.9 1073.15C1079.61 1185.29 1479.92 1208.47 1507.92 877.416C1467.39 1070.83 1259.09 1100.34 1200.16 1005.19C1180.91 967.129 1179.55 891.009 1213.54 816.248C1368.35 491.731 935.482 471.67 857.299 578.374C716.976 462.02 584.45 533.518 535.727 583.811Z" fill="white"/>
    <defs>
        <radialGradient id="paint0_radial_26_34" cx="0" cy="0" r="1" gradientUnits="userSpaceOnUse" gradientTransform="translate(470.461 291.566) rotate(55.6679) scale(1312.73 1806.38)">
            <stop stop-color="#FFC700"/>
            <stop offset="1" stop-color="#C83C00"/>
        </radialGradient>
    </defs>
</svg>
